<?xml version="1.0" encoding="iso-8859-1"?>
<!-- Generator: Adobe Illustrator 19.0.0, SVG Export Plug-In . SVG Version: 6.00 Build 0)  -->
<svg version="1.1" id="Layer_1" xmlns="http://www.w3.org/2000/svg" xmlns:xlink="http://www.w3.org/1999/xlink" x="0px" y="0px"
	 viewBox="0 0 501.995 501.995" style="enable-background:new 0 0 501.995 501.995;" xml:space="preserve">
<g>
	<g>
		<path style="fill:#CCCCCC;" d="M492,244.028H338.25V137.482H10v180.723v55.296h45.82c0.709-18.144,15.635-32.638,33.953-32.638
			s33.244,14.494,33.953,32.638H338.25h42.596c0.709-18.144,15.635-32.638,33.953-32.638s33.244,14.494,33.953,32.638H492V244.028z"
			/>
		<g>
			<path style="fill:#333333;" d="M89.773,340.863c-18.318,0-33.244,14.494-33.953,32.638c-0.017,0.448-0.034,0.896-0.034,1.349
				c0,18.77,15.216,33.987,33.987,33.987s33.987-15.216,33.987-33.987c0-0.452-0.017-0.901-0.034-1.349
				C123.016,355.357,108.091,340.863,89.773,340.863z"/>
			<path style="fill:#333333;" d="M448.752,373.501c-0.709-18.144-15.635-32.638-33.953-32.638s-33.244,14.494-33.953,32.638
				c-0.017,0.448-0.034,0.896-0.034,1.349c0,18.77,15.216,33.987,33.987,33.987s33.987-15.216,33.987-33.987
				C448.786,374.397,448.77,373.949,448.752,373.501z"/>
		</g>
	</g>
	<polygon style="fill:#29ABE2;" points="424.566,137.482 338.25,137.482 338.25,244.028 492,244.028 	"/>
	<polygon style="fill:#FBB03B;" points="195.22,212.725 195.22,179.66 149.438,179.66 149.438,212.725 116.372,212.725 
		116.372,258.508 149.438,258.508 149.438,291.573 195.22,291.573 195.22,258.508 228.285,258.508 228.285,212.725 	"/>
	<g>
		<rect x="286" y="93.159" style="fill:#FBB03B;" width="44" height="44"/>
		<g>
			<path d="M501.995,243.849c-0.033-1.816-0.574-3.633-1.545-5.17l-67.435-106.546c-1.834-2.896-5.022-4.652-8.45-4.652H340V93.159
				c0-5.523-4.478-10-10-10h-44c-5.522,0-10,4.477-10,10v34.323H10c-5.522,0-10,4.477-10,10v236.019c0,5.523,4.478,10,10,10h36.645
				c4.031,20.125,21.834,35.335,43.127,35.335c21.294,0,39.098-15.21,43.128-35.335h238.771
				c4.031,20.125,21.834,35.335,43.128,35.335c21.293,0,39.097-15.21,43.127-35.335H492c5.522,0,9.995-4.477,9.995-10V243.849z
				 M473.836,234.028H348.25v-86.546h32.918v23.314c0,5.523,4.478,10,10,10s10-4.477,10-10v-23.314h17.892L473.836,234.028z
				 M296,103.159h24v24h-24V103.159z M112.993,380.855c-2.715,10.448-12.422,17.981-23.221,17.981
				c-9.398,0-18.124-5.708-21.933-14.293c-4.379-9.872-1.417-21.74,7.006-28.457c7.653-6.103,18.572-6.9,27.021-1.945
				C111.008,359.502,115.667,370.569,112.993,380.855z M438.02,380.855c-2.715,10.448-12.421,17.981-23.22,17.981
				c-9.398,0-18.124-5.707-21.933-14.293c-4.38-9.873-1.417-21.74,7.007-28.457c7.653-6.102,18.572-6.9,27.021-1.945
				C436.035,359.502,440.693,370.569,438.02,380.855z M457.294,363.501c-5.018-18.771-22.164-32.638-42.494-32.638
				c-20.331,0-37.477,13.868-42.495,32.638H132.268c-5.018-18.771-22.164-32.638-42.495-32.638
				c-20.33,0-37.476,13.868-42.494,32.638H20v-19.822h10.499c5.522,0,10-4.477,10-10s-4.478-10-10-10H20V147.482h308.25v96.546
				c0,5.523,4.478,10,10,10H482v27.545h-14.377c-5.522,0-10,4.477-10,10s4.478,10,10,10H482v12.133h-14.377c-5.522,0-10,4.477-10,10
				s4.478,10,10,10H482v29.795H457.294z"/>
			<path d="M294.768,323.679H154.046c-5.522,0-10,4.477-10,10s4.478,10,10,10h140.722c5.522,0,10-4.477,10-10
				S300.29,323.679,294.768,323.679z"/>
			<path d="M353.494,323.679h-14.959c-5.522,0-10,4.477-10,10s4.478,10,10,10h14.959c5.522,0,10-4.477,10-10
				S359.017,323.679,353.494,323.679z"/>
			<path d="M391.168,196.253c-5.522,0-10,4.477-10,10v3.324c0,5.523,4.478,10,10,10s10-4.477,10-10v-3.324
				C401.168,200.73,396.69,196.253,391.168,196.253z"/>
			<path d="M195.22,301.573c5.522,0,10-4.477,10-10v-23.065h23.065c5.522,0,10-4.477,10-10v-45.782c0-5.523-4.478-10-10-10H205.22
				V179.66c0-5.523-4.478-10-10-10h-45.782c-5.522,0-10,4.477-10,10v23.065h-23.065c-5.522,0-10,4.477-10,10v45.782
				c0,5.523,4.478,10,10,10h23.065v23.065c0,5.523,4.478,10,10,10L195.22,301.573L195.22,301.573z M126.372,248.508v-25.782h23.065
				c5.522,0,10-4.477,10-10V189.66h25.782v23.065c0,5.523,4.478,10,10,10h23.065v25.782H195.22c-5.522,0-10,4.477-10,10v23.065
				h-25.782v-23.065c0-5.523-4.478-10-10-10L126.372,248.508L126.372,248.508z"/>
		</g>
	</g>
</g>
<g>
</g>
<g>
</g>
<g>
</g>
<g>
</g>
<g>
</g>
<g>
</g>
<g>
</g>
<g>
</g>
<g>
</g>
<g>
</g>
<g>
</g>
<g>
</g>
<g>
</g>
<g>
</g>
<g>
</g>
</svg>
