<?xml version="1.0" encoding="iso-8859-1"?>
<!-- Generator: Adobe Illustrator 19.0.0, SVG Export Plug-In . SVG Version: 6.00 Build 0)  -->
<svg version="1.1" id="Layer_1" xmlns="http://www.w3.org/2000/svg" xmlns:xlink="http://www.w3.org/1999/xlink" x="0px" y="0px"
	 viewBox="0 0 512 512" style="enable-background:new 0 0 512 512;" xml:space="preserve">
<g transform="translate(0 1)">
	<path style="fill:#FFDD09;" d="M128,169.667c0-70.827,57.173-128,128-128s128,57.173,128,128V229.4
		c0,75.093-57.173,153.6-128,153.6s-128-78.507-128-153.6V169.667z"/>
	<path style="fill:#FCC309;" d="M109.227,255h-12.8c-11.093,0-19.627-8.533-19.627-18.773v-64c0-11.093,8.533-19.627,18.773-19.627
		h12.8c10.24,0,18.773,8.533,18.773,18.773v64C128,246.467,119.467,255,109.227,255"/>
	<path style="fill:#FFFFFF;" d="M95.573,152.6h12.8c0.853,0,1.707,0,1.707,0c-9.387,0.853-17.067,9.387-17.067,18.773v64
		c0,10.24,7.68,17.92,17.067,18.773c-0.853,0-1.707,0-1.707,0h-12.8C85.333,255,76.8,246.467,76.8,236.227v-64
		C76.8,161.133,85.333,152.6,95.573,152.6"/>
	<path style="fill:#1CD759;" d="M213.333,109.933c0-56.32-46.08-102.4-102.4-102.4s-102.4,46.08-102.4,102.4
		s46.08,102.4,102.4,102.4S213.333,166.253,213.333,109.933"/>
	<path style="fill:#FFFFFF;" d="M34.133,109.933c0-52.053,39.253-95.573,89.6-101.547c-4.267-0.853-8.533-0.853-12.8-0.853
		c-56.32,0-102.4,46.08-102.4,102.4s46.08,102.4,102.4,102.4c4.267,0,8.533,0,12.8-0.853
		C73.387,205.507,34.133,161.987,34.133,109.933"/>
	<path style="fill:#54C9FD;" d="M482.987,431.64c-46.933-24.747-92.16-43.52-133.12-48.64H345.6l-55.467,76.8l8.533,42.667h-3.413
		l0,0h208.213v-36.693C503.467,451.267,495.787,438.467,482.987,431.64"/>
	<path style="fill:#33A9F8;" d="M482.987,431.64c-46.933-24.747-92.16-43.52-133.12-48.64H345.6l-2.56,3.413
		c35.84,7.68,73.387,23.893,113.493,45.227c12.8,6.827,20.48,19.627,20.48,34.133v36.693h25.6v-36.693
		C503.467,451.267,495.787,438.467,482.987,431.64"/>
	<path style="fill:#54C9FD;" d="M29.013,431.64c46.933-24.747,92.16-43.52,133.12-48.64h4.267l55.467,76.8l-8.533,42.667h3.413l0,0
		H8.533v-36.693C8.533,451.267,16.213,438.467,29.013,431.64"/>
	<g>
		<polygon style="fill:#FFDD09;" points="290.133,459.8 221.867,459.8 256,383 		"/>
		<polygon style="fill:#FFDD09;" points="213.333,502.467 221.867,459.8 290.133,459.8 298.667,502.467 		"/>
		<path style="fill:#FFDD09;" d="M164.693,332.653l-2.56-0.853l-8.533,34.133l68.267,93.867L256,383
			C220.16,383,187.733,362.52,164.693,332.653"/>
		<path style="fill:#FFDD09;" d="M347.307,332.653C324.267,362.52,291.84,383,256,383l34.133,76.8l68.267-93.867l-8.533-34.133
			L347.307,332.653z"/>
	</g>
	<path style="fill:#FD9808;" d="M358.4,229.4v-59.733c0-66.56-50.347-121.173-115.2-127.147c4.267-0.853,8.533-0.853,12.8-0.853
		c70.827,0,128,57.173,128,128V229.4c0,75.093-57.173,153.6-128,153.6c-4.267,0-8.533,0-12.8-0.853
		C308.053,373.613,358.4,300.227,358.4,229.4"/>
	<path style="fill:#FCC309;" d="M402.773,255h12.8c10.24,0,18.773-8.533,18.773-18.773v-64c0-10.24-8.533-18.773-18.773-18.773
		h-12.8c-10.24-0.853-18.773,7.68-18.773,17.92v64C384,246.467,392.533,255,402.773,255"/>
	<path style="fill:#FD9808;" d="M416.427,152.6h-12.8c-0.853,0-1.707,0-1.707,0c9.387,0.853,17.067,9.387,17.067,18.773v64
		c0,10.24-7.68,17.92-17.067,18.773c0.853,0,1.707,0,1.707,0h12.8c10.24,0,18.773-8.533,18.773-18.773v-64
		C435.2,161.133,426.667,152.6,416.427,152.6"/>
	<path style="fill:#FFFFFF;" d="M29.013,431.64c46.933-24.747,92.16-43.52,133.12-48.64h4.267l2.56,3.413
		c-35.84,7.68-73.387,23.893-113.493,45.227c-13.653,6.827-21.333,19.627-21.333,34.133v36.693h-25.6v-36.693
		C8.533,451.267,16.213,438.467,29.013,431.64"/>
	<path d="M290.133,468.333h-68.267c-2.56,0-5.973-1.707-6.827-4.267c-0.853-2.56-1.707-5.12-0.853-8.533l34.133-76.8
		c1.707-3.413,4.267-5.12,7.68-5.12c3.413,0,6.827,1.707,7.68,5.12l34.133,76.8c0.853,2.56,0.853,5.973-0.853,8.533
		C295.253,466.627,292.693,468.333,290.133,468.333z M234.667,451.267h41.813L256,404.333L234.667,451.267z"/>
	<path d="M213.333,511c-2.56,0-5.12-0.853-6.827-3.413c-1.707-1.707-1.707-4.267-1.707-6.827l8.533-42.667
		c0.853-4.267,4.267-6.827,8.533-6.827h68.267c4.267,0,7.68,2.56,8.533,6.827l8.533,42.667c0.853,2.56,0,5.12-1.707,6.827
		c-1.707,2.56-4.267,3.413-6.827,3.413H213.333L213.333,511z M228.693,468.333l-5.12,25.6h64.853l-5.12-25.6H228.693z"/>
	<path d="M221.867,468.333c-2.56,0-5.12-1.707-6.827-3.413l-68.267-93.867c-1.707-2.56-1.707-5.12-1.707-6.827l8.533-34.133
		c0.853-2.56,2.56-4.267,5.12-5.973c2.56-0.853,5.12-0.853,7.68,0l2.56,0.853c0.853,0.853,1.707,1.707,2.56,2.56
		c23.893,29.867,53.76,46.933,84.48,46.933c2.56,0,5.973,1.707,6.827,4.267c0.853,2.56,1.707,5.12,0.853,8.533l-34.133,76.8
		c-0.853,2.56-4.267,5.12-6.827,5.12C222.72,468.333,221.867,468.333,221.867,468.333z M162.987,364.227l57.173,78.507l23.04-52.053
		c-27.307-3.413-54.613-17.92-76.8-41.813L162.987,364.227z"/>
	<path d="M290.133,468.333h-0.853c-3.413,0-5.973-2.56-6.827-5.12l-34.133-76.8c-0.853-2.56-0.853-5.973,0.853-8.533
		c1.707-2.56,4.267-3.413,6.827-3.413c31.573,0,61.44-16.213,84.48-46.933c0.853-0.853,1.707-1.707,2.56-2.56l2.56-0.853
		c2.56-0.853,5.12-1.707,7.68,0c2.56,0.853,4.267,3.413,5.12,5.973l8.533,34.133c0.853,2.56,0,5.12-1.707,6.827L296.96,464.92
		C295.253,466.627,292.693,468.333,290.133,468.333z M268.8,390.68l23.04,52.053l57.173-78.507l-3.413-15.36
		C323.413,372.76,296.107,387.267,268.8,390.68z"/>
	<path d="M503.467,511H295.253c-4.267,0-7.68-3.413-8.533-7.68c0-2.56,0.853-4.267,1.707-6.827l-6.827-34.987
		c-0.853-2.56,0-5.12,1.707-6.827l55.467-76.8c1.707-2.56,4.267-3.413,6.827-3.413h4.267h0.853
		c37.547,4.267,79.36,19.627,135.68,49.493l0,0c15.36,8.533,25.6,24.747,25.6,41.813v36.693C512,507.587,508.587,511,503.467,511z
		 M305.493,493.933h189.44v-28.16c0-11.093-5.973-21.333-16.213-27.307c-53.76-28.16-93.867-42.667-128.853-47.787l-51.2,69.973
		L305.493,493.933z"/>
	<path d="M213.333,511H8.533C3.413,511,0,507.587,0,502.467v-36.693c0-17.92,9.387-34.133,25.6-41.813
		c56.32-29.867,98.133-45.227,135.68-49.493h0.853h4.267c2.56,0,5.12,1.707,6.827,3.413l55.467,76.8
		c1.707,1.707,1.707,4.267,1.707,6.827l-8.533,42.667C221.013,508.44,217.6,511,213.333,511z M17.067,493.933h189.44l6.827-32.427
		l-51.2-69.973c-34.987,4.267-74.24,18.773-128.853,47.787c-10.24,5.12-16.213,15.36-16.213,26.453V493.933z"/>
	<path d="M216.747,511h-3.413c-5.12,0-8.533-3.413-8.533-8.533c0-5.12,3.413-8.533,8.533-8.533h3.413
		c5.12,0,8.533,3.413,8.533,8.533C225.28,507.587,221.013,511,216.747,511z"/>
	<path d="M416.427,263.533h-12.8c-15.36,0-27.307-12.8-27.307-27.307v-64c0-15.36,12.8-27.307,27.307-27.307h12.8
		c15.36,0,27.307,12.8,27.307,27.307v64C443.733,250.733,430.933,263.533,416.427,263.533z M402.773,161.133
		c-5.973,0-10.24,5.12-10.24,10.24v64c0,5.973,5.12,10.24,10.24,10.24h12.8c5.973,0,10.24-5.12,10.24-10.24v-64
		c0-5.973-5.12-10.24-10.24-10.24H402.773z"/>
	<path d="M409.6,161.133c-5.12,0-8.533-3.413-8.533-8.533C401.067,33.987,309.76,16.067,256,16.067
		c-29.867,0-58.027,5.973-81.067,17.92c-4.267,2.56-9.387,0.853-11.093-3.413c-2.56-4.267-0.853-9.387,3.413-11.093
		C192.853,5.827,223.573-1,256-1c145.92,0,162.133,107.52,162.133,153.6C418.133,157.72,414.72,161.133,409.6,161.133z"/>
	<path d="M264.533,331.8c-5.12,0-8.533-3.413-8.533-8.533c0-5.12,3.413-8.533,8.533-8.533c120.32,0,136.533-29.013,136.533-59.733
		c0-5.12,3.413-8.533,8.533-8.533c5.12,0,8.533,3.413,8.533,8.533C418.133,308.76,372.053,331.8,264.533,331.8z"/>
	<path d="M162.133,152.6c-5.12,0-8.533-3.413-8.533-8.533V127h-34.133c-3.413,0-5.973-1.707-7.68-5.12
		c-1.707-3.413-0.853-6.827,0.853-9.387l42.667-51.2c2.56-2.56,5.973-3.413,9.387-2.56c3.413,1.707,5.973,5.12,5.973,8.533v42.667
		h8.533c5.12,0,8.533,3.413,8.533,8.533S184.32,127,179.2,127h-8.533v17.067C170.667,149.187,167.253,152.6,162.133,152.6z
		 M137.387,109.933H153.6V91.16L137.387,109.933z"/>
	<path d="M102.4,152.6H55.467c-5.12,0-9.387-3.413-11.947-7.68c-1.707-5.12-0.853-10.24,3.413-13.653l38.4-33.28
		c4.267-4.267,4.267-10.24,2.56-13.653C87.04,81.773,84.48,75.8,76.8,75.8c-9.387,0-17.067,7.68-17.067,17.067
		c0,5.12-3.413,8.533-8.533,8.533s-8.533-3.413-8.533-8.533c0-18.773,15.36-34.133,34.133-34.133c12.8,0,22.187,6.827,27.307,18.773
		c4.267,11.093,1.707,24.747-6.827,33.28l-29.867,25.6H102.4c5.12,0,8.533,3.413,8.533,8.533
		C110.933,150.04,107.52,152.6,102.4,152.6z M58.027,144.067L58.027,144.067L58.027,144.067z"/>
	<path d="M110.933,220.867C49.493,220.867,0,171.373,0,109.933S49.493-1,110.933-1s110.933,49.493,110.933,110.933
		S172.373,220.867,110.933,220.867z M110.933,16.067c-52.053,0-93.867,41.813-93.867,93.867S58.88,203.8,110.933,203.8
		s93.867-41.813,93.867-93.867S162.987,16.067,110.933,16.067z"/>
	<path d="M109.227,263.533h-12.8c-15.36,0-28.16-12.8-28.16-27.307v-29.013c0-2.56,1.707-5.12,3.413-6.827
		c2.56-1.707,5.12-1.707,7.68-0.853c10.24,3.413,20.48,5.12,31.573,5.12c5.12,0,10.24-0.853,15.36-1.707
		c2.56-0.853,5.12,0,6.827,1.707c1.707,1.707,3.413,4.267,3.413,6.827v24.747C136.533,250.733,123.733,263.533,109.227,263.533z
		 M85.333,217.453v17.92c0,5.973,5.12,10.24,10.24,10.24h12.8c5.973,0,10.24-5.12,10.24-10.24v-14.507
		C107.52,221.72,96.427,220.867,85.333,217.453z"/>
	<path d="M256,391.533c-78.507,0-136.533-85.333-136.533-162.133v-18.773c0-4.267,3.413-7.68,6.827-8.533
		c45.227-7.68,78.507-46.08,78.507-92.16c0-17.92-5.12-34.987-14.507-49.493c-0.853-1.707-1.707-4.267-0.853-6.827
		c0.853-2.56,2.56-4.267,4.267-5.12c19.627-10.24,40.96-15.36,62.293-15.36c75.093,0,136.533,61.44,136.533,136.533V229.4
		C392.533,306.2,334.507,391.533,256,391.533z M136.533,217.453V229.4c0,82.773,63.147,145.067,119.467,145.067
		S375.467,312.173,375.467,229.4v-59.733C375.467,103.96,321.707,50.2,256,50.2c-16.213,0-31.573,3.413-46.08,9.387
		c7.68,15.36,11.947,32.427,11.947,50.347C221.867,161.987,186.027,206.36,136.533,217.453z"/>
</g>
<g>
</g>
<g>
</g>
<g>
</g>
<g>
</g>
<g>
</g>
<g>
</g>
<g>
</g>
<g>
</g>
<g>
</g>
<g>
</g>
<g>
</g>
<g>
</g>
<g>
</g>
<g>
</g>
<g>
</g>
</svg>
